<?xml version="1.0" encoding="UTF-8" standalone="no"?><!DOCTYPE svg PUBLIC "-//W3C//DTD SVG 1.1//EN" "http://www.w3.org/Graphics/SVG/1.1/DTD/svg11.dtd"><svg width="100%" height="100%" viewBox="0 0 376 39" version="1.1" xmlns="http://www.w3.org/2000/svg" xmlns:xlink="http://www.w3.org/1999/xlink" xml:space="preserve" xmlns:serif="http://www.serif.com/" style="fill-rule:evenodd;clip-rule:evenodd;stroke-linejoin:round;stroke-miterlimit:2;"><g><path d="M0.055,35.559c-0.342,1.173 0.977,2.443 2.344,2.443c1.514,0 2.296,-1.27 2.637,-2.443l1.856,-5.862l10.404,0l1.807,5.862c0.342,1.173 1.123,2.443 2.637,2.443c1.368,0 2.687,-1.27 2.344,-2.443l-9.426,-33.067c-0.342,-1.271 -0.928,-2.492 -2.54,-2.492c-1.563,0 -2.1,1.172 -2.49,2.492l-9.573,33.067Zm15.873,-10.741l-7.668,0l3.81,-13.24l0.097,0l3.761,13.24Z" style="fill:#fff;fill-rule:nonzero;"/><path d="M35.229,35.559c0,1.564 0.683,2.443 2.44,2.443c1.756,0 2.439,-0.879 2.439,-2.443l0,-18.271l12.018,0c1.271,0 2.443,-0.683 2.443,-2.44c0,-1.756 -1.172,-2.439 -2.443,-2.439l-12.018,0l0,-7.53l16.806,0c1.27,0 2.443,-0.683 2.443,-2.439c0,-1.757 -1.173,-2.44 -2.443,-2.44l-21.685,0l0,35.559Z" style="fill:#fff;fill-rule:nonzero;"/><path d="M75.283,17.386l1.124,0l13.489,19.248c0.537,0.782 1.171,1.368 2.147,1.368c1.366,0 2.488,-0.928 2.488,-2.296c0,-0.928 -0.683,-1.857 -1.22,-2.589l-10.99,-15.731l4.496,0c3.908,0 7.714,-2.342 7.714,-6.933l0,-3.374c0,-4.347 -3.854,-7.079 -7.714,-7.079l-16.413,0l0,35.559c0,1.564 0.683,2.443 2.439,2.443c1.757,0 2.44,-0.879 2.44,-2.443l0,-18.173Zm0,-12.507l10.899,0c1.466,0 3.47,0.245 3.47,2.2l0,3.374c0,1.956 -2.15,2.053 -3.519,2.053l-10.85,0l0,-7.627Z" style="fill:#fff;fill-rule:nonzero;"/><path d="M120.082,4.879l7.181,0c1.27,0 2.443,-0.683 2.443,-2.439c0,-1.757 -1.173,-2.44 -2.443,-2.44l-19.242,0c-1.27,0 -2.443,0.683 -2.443,2.44c0,1.756 1.173,2.439 2.443,2.439l7.181,0l0,28.244l-7.181,0c-1.27,0 -2.443,0.683 -2.443,2.439c0,1.757 1.173,2.44 2.443,2.44l19.242,0c1.27,0 2.443,-0.683 2.443,-2.44c0,-1.756 -1.173,-2.439 -2.443,-2.439l-7.181,0l0,-28.244Z" style="fill:#fff;fill-rule:nonzero;"/><path d="M162.438,38.002c1.123,0 2.442,-0.683 2.442,-2.44c0,-1.854 -1.368,-2.439 -2.442,-2.439l-7.964,0c-2.198,0 -2.687,-0.147 -3.664,-2.15l-4.152,-8.454c-0.586,-1.173 -1.026,-2.003 -1.026,-3.371c0,-1.515 0.391,-2.395 1.026,-3.714l4.25,-8.502c0.928,-1.857 1.27,-2.053 3.371,-2.053l8.159,0c1.123,0 2.442,-0.683 2.442,-2.439c0,-1.854 -1.368,-2.44 -2.442,-2.44l-8.306,0c-3.761,0 -5.862,1.317 -7.523,4.684l-4.49,9.04c-0.976,1.954 -1.366,3.274 -1.366,5.424c0,1.905 0.488,3.469 1.317,5.13l4.49,9.089c1.563,3.171 3.664,4.635 7.328,4.635l8.55,0Z" style="fill:#fff;fill-rule:nonzero;"/><path d="M175.927,35.559c-0.342,1.173 0.977,2.443 2.345,2.443c1.514,0 2.295,-1.27 2.637,-2.443l1.856,-5.862l10.403,0l1.807,5.862c0.342,1.173 1.123,2.443 2.638,2.443c1.367,0 2.686,-1.27 2.344,-2.443l-9.426,-33.067c-0.342,-1.271 -0.928,-2.492 -2.54,-2.492c-1.563,0 -2.1,1.172 -2.491,2.492l-9.573,33.067Zm15.873,-10.741l-7.668,0l3.81,-13.24l0.098,0l3.76,13.24Z" style="fill:#fff;fill-rule:nonzero;"/><path d="M215.889,33.123l-2.345,0c-1.27,0 -2.442,0.683 -2.442,2.439c0,1.757 1.172,2.44 2.442,2.44l8.105,0c3.813,0 6.012,-1.122 7.723,-4.587l4.442,-8.892c0.879,-1.759 1.415,-3.421 1.415,-5.375c0,-2.248 -0.488,-3.665 -1.464,-5.669l-4.295,-8.6c-1.662,-3.318 -3.568,-4.879 -7.382,-4.879l-8.153,0c-1.514,0 -2.833,0.683 -2.833,2.44c0,1.854 1.368,2.439 2.98,2.439l1.807,0l0,28.244Zm4.88,-28.244l0.586,0c2.249,0 2.689,-0.049 3.715,2.053l4.058,8.258c0.684,1.417 1.222,2.345 1.222,4.006c0,1.222 -0.391,2.053 -0.929,3.177l-4.302,8.697c-0.88,1.808 -1.368,2.053 -3.422,2.053l-0.928,0l0,-28.244Z" style="fill:#fff;fill-rule:nonzero;"/><path d="M251.155,33.123l0,-11.682l7.182,0c1.27,0 2.443,-0.684 2.443,-2.44c0,-1.757 -1.173,-2.44 -2.443,-2.44l-7.182,0l0,-11.682l16.806,0c1.27,0 2.443,-0.683 2.443,-2.439c0,-1.757 -1.173,-2.44 -2.443,-2.44l-21.685,0l0,38.002l21.685,0c1.27,0 2.443,-0.683 2.443,-2.44c0,-1.756 -1.173,-2.439 -2.443,-2.439l-16.806,0Z" style="fill:#fff;fill-rule:nonzero;"/><path d="M293.514,28.917l-7.184,-18.659l0,-7.815c0,-1.564 -0.683,-2.443 -2.44,-2.443c-1.756,0 -2.439,0.879 -2.439,2.443l0,7.717c0,0.635 0.049,1.319 0.292,1.905l9.328,23.788c0.489,1.221 0.928,2.149 2.443,2.149c1.516,0 1.955,-0.928 2.444,-2.149l9.327,-23.788c0.244,-0.586 0.293,-1.27 0.293,-1.905l0,-7.717c0,-1.564 -0.683,-2.443 -2.439,-2.443c-1.757,0 -2.44,0.879 -2.44,2.443l0,7.815l-7.185,18.659Z" style="fill:#fff;fill-rule:nonzero;"/><path d="M333.327,0l-9.667,0l0,2.443l2.099,10.405c0.342,1.661 0.538,2.932 2.735,2.932c2.197,0 2.392,-1.271 2.734,-2.932l2.099,-10.405l0,-2.443Z" style="fill:#fff;fill-rule:nonzero;"/><path d="M357.412,6.883c-0.195,-0.293 -0.733,-0.88 -0.733,-1.32c0,-0.83 1.124,-0.684 1.662,-0.684l10.361,0c1.515,0 2.346,0.245 2.346,1.906c0,1.368 0.878,2.297 2.342,2.297c1.757,0 2.537,-1.271 2.537,-2.834c0,-1.71 -1.024,-3.516 -2.293,-4.638c-1.415,-1.22 -2.977,-1.61 -4.834,-1.61l-10.362,0c-1.564,0 -2.686,0 -4.052,0.878c-1.659,1.074 -2.586,2.733 -2.586,4.685c0,1.711 0.585,2.688 1.61,4.007l16.758,21.549c0.196,0.293 0.88,1.026 0.88,1.417c0,0.733 -1.222,0.587 -1.613,0.587l-10.606,0c-1.368,0 -2.15,-0.196 -2.15,-1.662c0,-1.319 -0.878,-2.492 -2.293,-2.492c-1.708,0 -2.586,1.368 -2.586,2.932c0,1.71 0.976,3.466 2.293,4.54c1.464,1.219 3.075,1.561 4.932,1.561l10.752,0c3.369,0 6.15,-1.854 6.15,-5.515c0,-1.661 -0.732,-2.785 -1.708,-4.055l-16.807,-21.549Z" style="fill:#fff;fill-rule:nonzero;"/></g></svg>