<?xml version="1.0" encoding="UTF-8" standalone="no"?><!DOCTYPE svg PUBLIC "-//W3C//DTD SVG 1.1//EN" "http://www.w3.org/Graphics/SVG/1.1/DTD/svg11.dtd"><svg width="100%" height="100%" viewBox="0 0 236 39" version="1.1" xmlns="http://www.w3.org/2000/svg" xmlns:xlink="http://www.w3.org/1999/xlink" xml:space="preserve" xmlns:serif="http://www.serif.com/" style="fill-rule:evenodd;clip-rule:evenodd;stroke-linejoin:round;stroke-miterlimit:2;"><g><path d="M5.612,6.883c-0.195,-0.293 -0.733,-0.88 -0.733,-1.32c0,-0.83 1.124,-0.684 1.662,-0.684l10.361,0c1.515,0 2.346,0.245 2.346,1.906c0,1.368 0.879,2.297 2.342,2.297c1.757,0 2.538,-1.271 2.538,-2.834c0,-1.71 -1.025,-3.516 -2.294,-4.638c-1.415,-1.22 -2.977,-1.61 -4.834,-1.61l-10.361,0c-1.564,0 -2.687,0 -4.053,0.878c-1.659,1.074 -2.586,2.733 -2.586,4.685c0,1.711 0.586,2.688 1.61,4.007l16.759,21.549c0.195,0.293 0.879,1.026 0.879,1.417c0,0.733 -1.222,0.587 -1.613,0.587l-10.605,0c-1.369,0 -2.151,-0.196 -2.151,-1.662c0,-1.319 -0.878,-2.492 -2.293,-2.492c-1.708,0 -2.586,1.368 -2.586,2.932c0,1.71 0.976,3.466 2.293,4.54c1.464,1.219 3.075,1.561 4.932,1.561l10.753,0c3.368,0 6.15,-1.854 6.15,-5.515c0,-1.661 -0.732,-2.785 -1.708,-4.055l-16.808,-21.549Z" style="fill:#fff;fill-rule:nonzero;"/><path d="M35.174,35.559c-0.341,1.173 0.977,2.443 2.345,2.443c1.514,0 2.295,-1.27 2.637,-2.443l1.856,-5.862l10.403,0l1.807,5.862c0.342,1.173 1.124,2.443 2.638,2.443c1.367,0 2.686,-1.27 2.344,-2.443l-9.426,-33.067c-0.342,-1.271 -0.928,-2.492 -2.54,-2.492c-1.563,0 -2.1,1.172 -2.491,2.492l-9.573,33.067Zm15.874,-10.741l-7.668,0l3.809,-13.24l0.098,0l3.761,13.24Z" style="fill:#fff;fill-rule:nonzero;"/><path d="M75.137,33.123l-2.345,0c-1.271,0 -2.443,0.683 -2.443,2.439c0,1.757 1.172,2.44 2.443,2.44l8.104,0c3.813,0 6.013,-1.122 7.724,-4.587l4.442,-8.892c0.878,-1.759 1.415,-3.421 1.415,-5.375c0,-2.248 -0.488,-3.665 -1.464,-5.669l-4.296,-8.6c-1.662,-3.318 -3.568,-4.879 -7.381,-4.879l-8.154,0c-1.514,0 -2.833,0.683 -2.833,2.44c0,1.854 1.368,2.439 2.98,2.439l1.808,0l0,28.244Zm4.879,-28.244l0.586,0c2.249,0 2.689,-0.049 3.716,2.053l4.057,8.258c0.685,1.417 1.222,2.345 1.222,4.006c0,1.222 -0.391,2.053 -0.929,3.177l-4.301,8.697c-0.88,1.808 -1.369,2.053 -3.422,2.053l-0.929,0l0,-28.244Z" style="fill:#fff;fill-rule:nonzero;"/><path d="M110.403,33.123l0,-11.682l7.181,0c1.27,0 2.443,-0.684 2.443,-2.44c0,-1.757 -1.173,-2.44 -2.443,-2.44l-7.181,0l0,-11.682l16.805,0c1.271,0 2.443,-0.683 2.443,-2.439c0,-1.757 -1.172,-2.44 -2.443,-2.44l-21.685,0l0,38.002l21.685,0c1.271,0 2.443,-0.683 2.443,-2.44c0,-1.756 -1.172,-2.439 -2.443,-2.439l-16.805,0Z" style="fill:#fff;fill-rule:nonzero;"/><path d="M152.762,28.917l-7.185,-18.659l0,-7.815c0,-1.564 -0.683,-2.443 -2.439,-2.443c-1.757,0 -2.44,0.879 -2.44,2.443l0,7.717c0,0.635 0.049,1.319 0.293,1.905l9.327,23.788c0.489,1.221 0.929,2.149 2.444,2.149c1.515,0 1.955,-0.928 2.443,-2.149l9.328,-23.788c0.244,-0.586 0.293,-1.27 0.293,-1.905l0,-7.717c0,-1.564 -0.684,-2.443 -2.44,-2.443c-1.757,0 -2.44,0.879 -2.44,2.443l0,7.815l-7.184,18.659Z" style="fill:#fff;fill-rule:nonzero;"/><path d="M192.574,0l-9.667,0l0,2.443l2.1,10.405c0.342,1.661 0.537,2.932 2.734,2.932c2.197,0 2.392,-1.271 2.734,-2.932l2.099,-10.405l0,-2.443Z" style="fill:#fff;fill-rule:nonzero;"/><path d="M216.659,6.883c-0.195,-0.293 -0.733,-0.88 -0.733,-1.32c0,-0.83 1.124,-0.684 1.662,-0.684l10.361,0c1.515,0 2.346,0.245 2.346,1.906c0,1.368 0.879,2.297 2.342,2.297c1.757,0 2.537,-1.271 2.537,-2.834c0,-1.71 -1.024,-3.516 -2.293,-4.638c-1.415,-1.22 -2.977,-1.61 -4.834,-1.61l-10.361,0c-1.564,0 -2.687,0 -4.053,0.878c-1.659,1.074 -2.586,2.733 -2.586,4.685c0,1.711 0.585,2.688 1.61,4.007l16.759,21.549c0.195,0.293 0.879,1.026 0.879,1.417c0,0.733 -1.222,0.587 -1.613,0.587l-10.605,0c-1.369,0 -2.151,-0.196 -2.151,-1.662c0,-1.319 -0.878,-2.492 -2.293,-2.492c-1.708,0 -2.586,1.368 -2.586,2.932c0,1.71 0.976,3.466 2.293,4.54c1.464,1.219 3.075,1.561 4.932,1.561l10.753,0c3.368,0 6.149,-1.854 6.149,-5.515c0,-1.661 -0.731,-2.785 -1.707,-4.055l-16.808,-21.549Z" style="fill:#fff;fill-rule:nonzero;"/></g></svg>